P3
40 20
255
221 235 255
221 235 255
221 235 255
221 235 255
221 235 255
221 235 255
221 235 255
221 235 255
221 235 255
221 235 255
221 235 255
221 235 255
221 235 255
221 235 255
221 235 255
221 235 255
221 235 255
221 235 255
221 235 255
221 235 255
221 235 255
221 235 255
221 235 255
221 235 255
221 235 255
221 235 255
221 235 255
221 235 255
221 235 255
221 235 255
221 235 255
221 235 255
221 235 255
221 235 255
221 235 255
221 235 255
221 235 255
221 235 255
221 235 255
221 235 255
221 236 255
221 236 255
221 236 255
221 236 255
221 236 255
221 236 255
221 236 255
221 236 255
221 236 255
221 236 255
221 236 255
221 236 255
221 236 255
221 236 255
221 236 255
209 220 238
183 187 198
180 182 191
206 221 241
177 202 223
182 205 227
206 224 244
221 236 255
216 229 247
200 210 224
195 205 218
200 210 225
216 229 247
221 236 255
221 236 255
221 236 255
221 236 255
221 236 255
221 236 255
221 236 255
221 236 255
221 236 255
221 236 255
221 236 255
221 236 255
222 236 255
222 236 255
222 236 255
222 236 255
222 236 255
222 236 255
222 236 255
222 236 255
222 236 255
222 236 255
222 236 255
222 236 255
222 236 255
222 236 255
196 204 218
120 96 78
122 98 81
118 137 151
84 116 138
96 128 151
108 127 151
110 148 169
168 178 188
161 170 181
156 168 181
154 167 181
156 168 181
161 170 181
183 190 199
219 232 250
222 236 255
222 236 255
222 236 255
222 236 255
222 236 255
222 236 255
222 236 255
222 236 255
222 236 255
222 236 255
222 236 255
222 236 255
222 236 255
222 236 255
222 236 255
222 236 255
222 236 255
222 236 255
222 236 255
222 236 255
222 236 255
222 236 255
223 236 255
221 234 253
112 90 72
110 89 72
117 135 138
90 126 147
94 105 134
110 98 120
136 92 122
168 173 180
161 170 181
155 167 181
152 166 181
151 166 181
152 166 181
156 168 181
161 170 181
175 180 186
220 233 251
222 236 255
222 236 255
222 236 255
222 236 255
222 236 255
222 236 255
222 236 255
222 236 255
222 236 255
190 212 232
186 209 229
182 206 226
180 205 225
178 203 223
180 204 225
174 200 220
169 196 217
173 199 220
178 203 223
168 195 217
166 194 215
170 197 218
154 178 196
104 83 66
105 88 72
119 150 165
107 112 125
112 120 146
90 114 95
157 159 160
168 173 181
162 171 181
158 169 181
156 168 181
155 167 181
156 168 181
158 169 181
162 171 181
168 174 181
184 189 196
173 199 220
168 196 217
182 206 226
180 204 225
178 203 223
182 206 226
182 206 226
185 208 228
189 211 231
111 148 172
106 156 181
102 146 176
100 147 180
97 126 166
107 136 159
108 154 178
143 161 186
111 151 175
111 148 171
115 146 166
104 154 171
121 140 166
104 147 167
100 79 64
107 97 89
131 151 177
113 133 136
98 125 156
122 140 176
177 178 181
171 175 181
167 173 181
165 172 181
163 171 181
163 171 181
163 171 181
165 172 181
167 173 181
171 175 181
177 178 181
106 129 133
120 162 183
107 148 168
71 85 88
120 143 160
94 97 133
95 116 173
98 131 159
85 81 125
160 166 202
116 136 157
90 76 109
114 68 154
128 139 203
79 88 107
81 136 126
99 99 138
103 79 136
90 90 89
96 77 147
82 91 117
122 81 111
96 106 136
103 86 71
94 86 81
210 226 247
217 233 253
212 228 248
201 210 222
181 180 181
177 178 181
175 177 181
173 176 181
172 176 181
172 176 181
172 176 181
173 176 181
175 177 181
177 178 181
180 180 181
123 133 136
105 115 128
93 109 122
80 107 120
103 113 142
108 125 114
98 94 114
115 95 88
113 135 129
81 150 148
152 151 209
99 31 54
32 69 96
76 111 141
130 115 194
107 130 145
76 115 132
46 90 128
125 65 74
144 166 179
32 46 65
139 178 189
100 118 148
92 71 70
90 106 98
191 212 234
205 224 249
209 227 251
160 172 189
147 149 151
166 169 167
178 177 177
183 181 181
182 181 181
182 181 181
182 181 181
182 181 181
182 181 180
174 174 173
157 161 160
75 104 146
104 147 168
135 148 128
102 96 82
102 96 103
127 99 105
79 99 122
140 171 211
101 85 116
44 146 120
76 101 178
82 113 163
38 89 90
79 109 122
101 77 61
93 127 146
101 148 170
102 149 172
93 79 102
37 69 113
89 132 151
110 111 125
153 55 69
86 124 141
125 162 160
157 186 202
191 215 244
199 220 248
157 176 195
80 96 105
89 107 107
86 92 97
78 92 98
82 93 90
75 107 116
76 102 99
75 106 115
102 105 102
79 99 117
80 94 109
68 103 138
103 122 138
105 111 97
55 139 98
107 127 128
111 70 75
90 127 145
67 95 116
40 60 108
75 107 80
62 92 136
62 105 143
82 116 152
90 133 144
119 168 97
111 159 132
102 149 174
102 138 168
135 92 89
99 88 99
98 143 166
161 152 197
125 140 150
93 144 149
89 133 147
90 135 151
97 102 127
87 75 104
79 115 190
78 97 105
80 104 106
80 110 113
84 115 121
83 70 112
52 63 81
78 105 114
80 109 117
82 112 118
72 93 102
65 99 96
125 146 197
118 153 188
69 128 123
69 111 72
80 68 80
98 136 155
69 102 115
58 81 87
66 99 122
123 84 143
109 105 146
106 132 157
178 173 216
159 169 224
144 161 197
89 137 137
86 134 165
50 98 126
77 109 138
97 137 157
98 141 163
85 111 139
66 125 96
103 147 168
86 125 131
101 148 172
79 111 131
66 85 105
98 126 159
110 134 138
77 105 111
83 112 117
83 113 119
77 103 110
64 84 91
76 104 110
81 86 104
81 94 107
76 105 107
65 93 93
53 82 111
69 58 75
75 69 77
80 105 130
53 11 68
69 94 112
86 128 146
95 140 162
99 146 168
80 61 90
89 109 136
94 136 161
81 103 131
102 123 165
87 106 141
138 119 128
92 89 92
23 61 59
66 105 119
100 148 171
71 40 50
66 35 43
96 111 133
108 113 144
102 142 151
100 146 168
102 148 170
102 149 173
98 144 163
73 107 105
76 103 106
77 104 108
80 106 109
76 103 107
75 100 104
73 98 103
56 58 71
73 96 102
80 110 117
90 133 152
96 142 165
51 14 14
55 15 16
93 135 157
61 127 113
65 146 121
56 89 97
101 137 167
124 96 187
84 111 122
106 152 174
134 181 198
118 160 177
88 128 154
117 103 113
143 75 55
140 73 53
38 67 72
84 126 146
95 140 162
52 38 46
45 56 51
72 144 126
76 125 123
108 148 170
107 149 170
100 147 168
100 146 168
92 134 151
92 133 150
88 128 143
67 93 97
67 92 94
65 88 90
65 87 88
59 80 82
61 81 82
79 86 107
100 57 129
98 110 147
95 138 160
81 118 135
76 109 127
91 136 157
52 134 105
53 132 103
74 101 109
97 91 126
104 90 142
89 129 152
97 132 166
130 171 188
134 171 174
101 147 169
99 127 144
98 58 44
160 92 72
163 109 100
107 139 158
93 134 155
87 127 148
68 126 122
57 128 107
52 120 102
127 156 177
101 115 139
94 134 153
94 137 156
92 134 152
105 110 163
128 52 187
99 77 149
56 82 90
46 62 68
51 38 73
49 35 70
60 87 97
77 65 107
84 50 113
86 55 116
92 135 152
92 136 156
94 140 160
89 132 150
53 103 96
44 101 89
76 94 117
80 81 114
80 81 112
58 87 143
56 84 141
54 79 133
74 125 133
100 147 169
94 136 157
119 121 132
157 92 71
148 88 69
124 118 126
99 145 167
100 147 170
82 129 144
42 100 85
58 106 104
140 174 201
125 163 187
98 144 166
95 140 161
94 138 159
112 51 168
117 21 175
111 20 168
86 126 142
67 91 110
45 30 65
43 40 99
63 84 184
66 85 156
59 52 89
70 93 116
87 127 146
98 142 164
95 141 162
98 144 164
96 143 164
91 136 156
47 91 143
16 79 156
38 89 157
43 68 109
47 73 123
46 72 117
90 135 157
102 143 163
100 144 166
104 141 162
119 78 65
106 60 82
97 89 126
99 141 165
101 148 171
99 147 169
97 144 165
100 147 170
97 143 165
99 136 162
98 121 151
99 142 166
92 133 156
93 90 151
89 17 147
85 62 142
91 132 154
84 121 140
33 36 57
50 66 175
54 73 192
54 73 192
87 127 166
96 141 164
99 144 167
99 145 170
103 150 173
104 152 176
103 151 175
100 145 168
17 69 135
17 75 144
14 73 144
67 100 119
41 62 85
70 103 122
107 105 106
126 81 45
126 82 46
96 127 144
86 98 127
79 25 99
78 25 99
79 62 110
102 149 172
101 146 168
103 151 174
104 152 176
102 141 167
96 40 106
93 36 103
94 65 117
98 142 169
88 125 154
80 112 139
82 119 146
90 129 157
94 137 160
85 123 148
54 78 160
43 63 167
42 59 158
90 132 164
99 145 169
103 152 176
90 104 119
83 38 20
86 68 70
96 138 161
93 137 160
52 92 120
44 90 116
41 87 118
67 100 140
15 28 112
32 50 119
100 65 49
109 72 40
104 69 38
100 104 108
80 92 122
64 20 81
67 22 88
73 51 100
99 145 168
101 148 171
103 149 173
102 148 171
94 115 144
91 51 94
118 104 100
90 63 93
102 148 172
102 151 174
103 150 174
101 149 175
99 144 169
99 145 171
90 132 162
81 119 148
50 76 121
63 94 134
92 135 161
98 145 171
102 149 172
70 33 17
76 35 18
76 35 18
83 102 116
93 137 160
35 71 92
40 83 107
39 81 105
14 26 105
10 22 103
10 22 106
46 36 86
82 58 32
84 58 32
85 111 126
90 127 150
47 33 69
52 38 76
84 118 143
97 142 166
101 148 172
99 146 170
98 143 167
97 136 159
163 178 104
169 187 108
166 184 108
114 158 166
97 150 175
62 171 210
48 175 216
82 161 194
100 148 173
100 147 172
98 144 171
95 141 167
94 140 168
96 143 169
94 137 162
101 148 172
64 43 40
64 31 16
63 31 16
82 109 125
95 141 165
37 71 90
35 75 96
30 68 88
9 20 93
9 19 92
8 19 91
42 60 95
61 71 74
58 73 78
78 112 129
82 117 135
73 103 121
82 119 140
87 126 148
96 141 165
102 150 174
95 141 165
92 135 158
112 142 132
152 170 97
148 168 96
152 175 101
102 142 117
59 153 182
47 165 203
67 161 196
57 163 198
95 155 182
103 151 175
103 152 175
103 151 176
100 148 173
101 147 171
97 141 163
90 131 152
76 107 122
53 59 63
59 73 82
78 115 134
85 126 146
69 103 120
42 72 88
58 93 108
